<svg xmlns="http://www.w3.org/2000/svg" viewBox="0 0 116.62 201.16"><defs><style>.cls-1{fill:none;stroke:#0e1a28;stroke-miterlimit:10;stroke-width:3px;}</style></defs><g id="Layer_2" data-name="Layer 2"><g id="Layer_1-2" data-name="Layer 1"><path class="cls-1" d="M90.08,177.8A34.13,34.13,0,0,1,94,161.88a95.91,95.91,0,0,0-24.45-6.34,9.3,9.3,0,0,1-1.51-.17,9.86,9.86,0,0,1-7.9-8.45v-3.51h0V105.47A34.4,34.4,0,0,0,108.91,113,34.42,34.42,0,0,1,70.35,99.53,21.73,21.73,0,0,0,73.6,97a9.85,9.85,0,0,0,17.25,1.91,9.85,9.85,0,0,1-13.74-6.18,22,22,0,0,0,3.27-9,12.66,12.66,0,0,0,.15-1.51q.06-.74.06-1.5a22.2,22.2,0,0,0-3.53-12.06A34.55,34.55,0,0,0,90.67,51.21,32.58,32.58,0,0,0,92,46.39a33.58,33.58,0,0,0,.63-6.54,34.54,34.54,0,0,0-.75-7.17,59.47,59.47,0,0,0,11.43-10.34A59.1,59.1,0,0,0,58.45,1.51h-.28A59.08,59.08,0,0,0,13.35,22.34,59.47,59.47,0,0,0,24.78,32.68,34.54,34.54,0,0,0,24,39.85a33.58,33.58,0,0,0,.63,6.54A32.58,32.58,0,0,0,26,51.21,34.55,34.55,0,0,0,39.56,68.64,22.2,22.2,0,0,0,36,80.7q0,.76.06,1.5a12.66,12.66,0,0,0,.15,1.51,22,22,0,0,0,3.27,9,9.85,9.85,0,0,1-13.74,6.18A9.85,9.85,0,0,0,43,97a21.73,21.73,0,0,0,3.25,2.57A34.43,34.43,0,0,1,7.71,113a34.38,34.38,0,0,0,48.77-7.57v37.94h0v3.51a9.86,9.86,0,0,1-7.9,8.45,9.3,9.3,0,0,1-1.51.17,95.91,95.91,0,0,0-24.45,6.34,34.13,34.13,0,0,1,3.89,15.92,34.3,34.3,0,0,1-6.27,19.83,96.27,96.27,0,0,1,38-8.07,96.27,96.27,0,0,1,38,8.07A34.3,34.3,0,0,1,90.08,177.8Z"/></g></g></svg>